<svg width="1047" height="1736" viewBox="0 0 1047 1736" fill="none" xmlns="http://www.w3.org/2000/svg">
<path d="M64.8946 1734.22L490.707 1734.59L1040.5 1735.08C1042.58 1735.08 1044.26 1733.53 1044.27 1731.45C1044.31 1692.6 1044.68 1353.07 1044.68 1254.22C1044.68 1149.33 874.154 1150.67 874.698 1254.22C875.243 1357.78 874.96 1405.19 874.154 1488.64C873.347 1572.09 757.055 1565.62 757.055 1488.54C757.055 1411.45 757.056 770.923 757.057 685.562C757.058 600.201 586.883 585.417 586.885 685.562C586.886 760.936 586.885 1035.22 586.885 1198.48L586.884 1312.46C586.884 1387.93 470.002 1378.62 470.002 1312.46L470.002 1066.07C470.002 936.264 299.677 936.264 299.677 1065.92C299.677 1195.58 299.708 1352.03 299.348 1441.22C298.988 1530.42 172.139 1524.37 171.605 1441.11C171.07 1357.85 172.139 939.96 172.139 831.244C172.139 722.529 1.81416 719.841 1.8142 831.095C1.81411 939.713 1.11867 1629.94 1.08566 1662.6L1.08449 1663.8C1.08448 1663.81 1.08435 1663.81 1.08423 1663.81L1.0841 1663.82C0.43528 1714.26 14.9303 1729.4 64.8946 1734.22Z" fill="#664187"/>
<path d="M874.698 867.047L874.698 867.047C874.698 867.035 874.698 867.054 874.698 867.043C874.705 866.673 875.507 822.45 874.832 714.579C874.154 606.252 1045.16 610.285 1045.16 714.728L1045.16 782.944C1045.16 862.101 1045.16 938.45 1045.16 1019.61C1045.16 1123.79 874.154 1112.36 874.154 1019.61C874.154 927.162 874.695 867.442 874.698 867.047Z" fill="#664187"/>
<path d="M64.8946 1734.22L490.707 1734.59L1040.5 1735.08C1042.58 1735.08 1044.26 1733.53 1044.27 1731.45C1044.31 1692.6 1044.68 1353.07 1044.68 1254.22C1044.68 1149.33 874.154 1150.67 874.698 1254.22C875.243 1357.78 874.96 1405.19 874.154 1488.64C873.347 1572.09 757.055 1565.62 757.055 1488.54C757.055 1411.45 757.056 770.923 757.057 685.562C757.058 600.201 586.883 585.417 586.885 685.562C586.886 760.936 586.885 1035.22 586.885 1198.48L586.884 1312.46C586.884 1387.93 470.002 1378.62 470.002 1312.46L470.002 1066.07C470.002 936.264 299.677 936.264 299.677 1065.92C299.677 1195.58 299.708 1352.03 299.348 1441.22C298.988 1530.42 172.139 1524.37 171.605 1441.11C171.07 1357.85 172.139 939.96 172.139 831.244C172.139 722.529 1.81416 719.841 1.8142 831.095C1.81411 939.713 1.11867 1629.94 1.08566 1662.6L1.08449 1663.8C1.08448 1663.81 1.08435 1663.81 1.08423 1663.81L1.0841 1663.82C0.43528 1714.26 14.9303 1729.4 64.8946 1734.22Z" stroke="#967FCF" stroke-width="1.25392"/>
<path d="M874.698 867.047L874.698 867.047C874.698 867.035 874.698 867.054 874.698 867.043C874.705 866.673 875.507 822.45 874.832 714.579C874.154 606.252 1045.16 610.285 1045.16 714.728L1045.16 782.944C1045.16 862.101 1045.16 938.45 1045.16 1019.61C1045.16 1123.79 874.154 1112.36 874.154 1019.61C874.154 927.162 874.695 867.442 874.698 867.047Z" stroke="#967FCF" stroke-width="1.25392"/>
<rect x="1045.78" y="0.914062" width="278.371" height="161.756" rx="80.8781" transform="rotate(90.0502 1045.78 0.914062)" fill="#664187"/>
<rect x="755.879" y="230.006" width="359.875" height="161.756" rx="80.8778" transform="rotate(90.0502 755.879 230.006)" fill="#664187"/>
<rect x="466.111" y="410.436" width="359.875" height="161.756" rx="80.8778" transform="rotate(90.0502 466.111 410.436)" fill="#664187"/>
<rect x="164.031" y="278.511" width="359.875" height="161.756" rx="80.8778" transform="rotate(90.0502 164.031 278.511)" fill="#664187"/>
</svg>
