<svg width="24" height="24" viewBox="0 0 24 24" fill="none" xmlns="http://www.w3.org/2000/svg">
<path d="M21.9103 22L18.8803 18.97M17.2903 4.13998L17.2203 7.92998C17.2103 8.44998 17.5403 9.13998 17.9603 9.44998L20.4403 11.33C22.0303 12.53 21.7703 14 19.8703 14.6L16.6403 15.61C16.1003 15.78 15.5303 16.37 15.3903 16.92L14.6203 19.86C14.0103 22.18 12.4903 22.41 11.2303 20.37L9.47027 17.52C9.15027 17 8.39027 16.61 7.79027 16.64L4.45027 16.81C2.06027 16.93 1.38027 15.55 2.94027 13.73L4.92027 11.43C5.29027 11 5.46027 10.2 5.29027 9.65998L4.28027 6.42998C3.69027 4.52998 4.75027 3.47998 6.64027 4.09998L9.59027 5.06998C10.0903 5.22998 10.8403 5.11998 11.2603 4.80998L14.3403 2.58998C16.0003 1.38998 17.3303 2.08998 17.2903 4.13998Z" stroke="#664187" stroke-width="1.5" stroke-linecap="round" stroke-linejoin="round"/>
</svg>
