<svg width="178" height="145" viewBox="0 0 178 145" fill="none" xmlns="http://www.w3.org/2000/svg">
<g filter="url(#filter0_d_1201_982)">
<rect x="43" y="58.9111" width="89.8393" height="79.0893" rx="7.67857" fill="white"/>
</g>
<path d="M43 66.5897C43 62.3489 46.4378 58.9111 50.6786 58.9111H125.161C129.401 58.9111 132.839 62.3489 132.839 66.5897V81.9468H43V66.5897Z" fill="#9056E8"/>
<path d="M74.6058 98.9106V95.0774H82.2721V121.946H78.0336V98.9106H74.6058ZM105.072 98.3209L94.826 121.946H90.5874L100.944 98.7631H87.3072V95.188H105.072V98.3209Z" fill="black"/>
<path d="M69.1074 53.5357C69.1074 52.6876 69.795 52 70.6431 52H71.411C72.2591 52 72.9467 52.6876 72.9467 53.5357V62.75C72.9467 63.5982 72.2591 64.2857 71.411 64.2857H70.6431C69.795 64.2857 69.1074 63.5982 69.1074 62.75V53.5357Z" fill="black"/>
<path d="M103.66 53.5357C103.66 52.6876 104.348 52 105.196 52H105.964C106.812 52 107.499 52.6876 107.499 53.5357V62.75C107.499 63.5982 106.812 64.2857 105.964 64.2857H105.196C104.348 64.2857 103.66 63.5982 103.66 62.75V53.5357Z" fill="black"/>
<path d="M8 82C10.7614 82 13 79.7614 13 77C13 74.2386 10.7614 72 8 72C5.2386 72 3 74.2386 3 77C3 79.7614 5.2386 82 8 82Z" stroke="#9056E8" stroke-width="2" stroke-linejoin="round"/>
<path d="M12.9991 77.6006C13.0063 77.6077 15.3605 80.5684 20.0619 86.4824C20.2272 86.6811 20.2138 86.973 20.0311 87.1558L17.9893 89.1975C17.8066 89.3803 17.5146 89.3936 17.316 89.2283L8.91016 81.9996" stroke="#9056E8" stroke-width="2" stroke-linecap="round" stroke-linejoin="round"/>
<path d="M13.2344 82.2354L14.6486 83.6496" stroke="#9056E8" stroke-width="2" stroke-linecap="round" stroke-linejoin="round"/>
<path d="M8.5 92.0436C9.4583 90.7944 10.6234 90.1698 11.9953 90.1698C14.0532 90.1698 16.4815 92.7552 18.5532 92.3994C20.6248 92.0436 21.2178 90.0004 19.9426 88.8691" stroke="#9056E8" stroke-width="2" stroke-linecap="round" stroke-linejoin="round"/>
<path d="M165.566 52.7373L159.82 66.0498" stroke="#664187" stroke-width="2" stroke-linecap="round" stroke-linejoin="round"/>
<path d="M153.187 63.7521C153.738 62.4743 155.221 61.8856 156.499 62.4372L160.612 64.2128L159.431 66.9488C158.88 68.2266 157.397 68.8152 156.119 68.2636L154.319 67.4868C153.042 66.9352 152.453 65.4522 153.004 64.1744L153.187 63.7521Z" stroke="#664187" stroke-width="2" stroke-linejoin="round"/>
<path fill-rule="evenodd" clip-rule="evenodd" d="M163.968 56.4402L169.277 60.3957L170.883 56.6737L165.566 52.7373L163.968 56.4402Z" stroke="#664187" stroke-width="2" stroke-linecap="round" stroke-linejoin="round"/>
<path d="M129.396 39.5342L131.736 40.415" stroke="#493A8B" stroke-width="2" stroke-linecap="round" stroke-linejoin="round"/>
<path d="M130.453 36.7266L132.793 37.6073" stroke="#493A8B" stroke-width="2" stroke-linecap="round" stroke-linejoin="round"/>
<path d="M131.51 33.9189L133.849 34.7997" stroke="#493A8B" stroke-width="2" stroke-linecap="round" stroke-linejoin="round"/>
<path d="M132.566 31.1113L134.906 31.9921" stroke="#493A8B" stroke-width="2" stroke-linecap="round" stroke-linejoin="round"/>
<path d="M134.543 41.4717L136.883 42.3525" stroke="#493A8B" stroke-width="2" stroke-linecap="round" stroke-linejoin="round"/>
<path d="M135.6 38.6641L137.939 39.5448" stroke="#493A8B" stroke-width="2" stroke-linecap="round" stroke-linejoin="round"/>
<path d="M136.658 35.8564L138.998 36.7372" stroke="#493A8B" stroke-width="2" stroke-linecap="round" stroke-linejoin="round"/>
<path d="M137.715 33.0488L140.055 33.9296" stroke="#493A8B" stroke-width="2" stroke-linecap="round" stroke-linejoin="round"/>
<path d="M138.771 30.2412L141.111 31.122" stroke="#493A8B" stroke-width="2" stroke-linecap="round" stroke-linejoin="round"/>
<path d="M139.828 27.4336L142.168 28.3144" stroke="#493A8B" stroke-width="2" stroke-linecap="round" stroke-linejoin="round"/>
<path d="M140.885 24.626L143.224 25.5068" stroke="#493A8B" stroke-width="2" stroke-linecap="round" stroke-linejoin="round"/>
<path d="M139.691 43.4102L142.031 44.2909" stroke="#493A8B" stroke-width="2" stroke-linecap="round" stroke-linejoin="round"/>
<path d="M144.838 45.3477L147.178 46.2284" stroke="#493A8B" stroke-width="2" stroke-linecap="round" stroke-linejoin="round"/>
<path d="M140.748 40.6025L143.088 41.4833" stroke="#493A8B" stroke-width="2" stroke-linecap="round" stroke-linejoin="round"/>
<path d="M145.895 42.54L148.234 43.4208" stroke="#493A8B" stroke-width="2" stroke-linecap="round" stroke-linejoin="round"/>
<path d="M141.805 37.7949L144.144 38.6757" stroke="#493A8B" stroke-width="2" stroke-linecap="round" stroke-linejoin="round"/>
<path d="M146.953 39.7324L149.293 40.6132" stroke="#493A8B" stroke-width="2" stroke-linecap="round" stroke-linejoin="round"/>
<path d="M148.01 36.9248L150.349 37.8056" stroke="#493A8B" stroke-width="2" stroke-linecap="round" stroke-linejoin="round"/>
<path d="M149.066 34.1172L151.406 34.998" stroke="#493A8B" stroke-width="2" stroke-linecap="round" stroke-linejoin="round"/>
<path d="M29.4259 41.2907L15.2266 46.1259C14.4424 46.3929 14.0231 47.2451 14.2902 48.0293L19.1253 62.2286C19.3924 63.0128 20.2446 63.4321 21.0288 63.1651L35.2281 58.3299C36.0123 58.0628 36.4316 57.2106 36.1645 56.4264L31.3294 42.2271C31.0623 41.4429 30.2101 41.0236 29.4259 41.2907Z" stroke="#9056E8" stroke-width="2" stroke-linejoin="round"/>
<path d="M18.5391 44.9971L24.3413 62.0363" stroke="#9056E8" stroke-width="2" stroke-linecap="round" stroke-linejoin="round"/>
<path d="M26.1133 42.4189L31.9155 59.4581" stroke="#9056E8" stroke-width="2" stroke-linecap="round" stroke-linejoin="round"/>
<path d="M15.2578 50.8691L19.9909 49.2574" stroke="#9056E8" stroke-width="2" stroke-linecap="round" stroke-linejoin="round"/>
<path d="M27.5645 46.6787L32.2976 45.067" stroke="#9056E8" stroke-width="2" stroke-linecap="round" stroke-linejoin="round"/>
<path d="M18.1582 59.3887L22.8913 57.7769" stroke="#9056E8" stroke-width="2" stroke-linecap="round" stroke-linejoin="round"/>
<path d="M16.707 55.1289L33.7462 49.3267" stroke="#9056E8" stroke-width="2" stroke-linecap="round" stroke-linejoin="round"/>
<path d="M30.4648 55.1982L35.198 53.5865" stroke="#9056E8" stroke-width="2" stroke-linecap="round" stroke-linejoin="round"/>
<path d="M158.409 112.202L139.609 119.027L144.046 131.247L162.845 124.422L158.409 112.202Z" stroke="#664187" stroke-width="2" stroke-linecap="round" stroke-linejoin="round"/>
<path d="M158.41 112.203L156.704 107.503L137.904 114.328L139.611 119.028L158.41 112.203Z" stroke="#664187" stroke-width="2" stroke-linecap="round" stroke-linejoin="round"/>
<path d="M148.244 110.574L151.83 114.592" stroke="#664187" stroke-width="2" stroke-linecap="round" stroke-linejoin="round"/>
<path d="M144.484 111.939L148.071 115.957" stroke="#664187" stroke-width="2" stroke-linecap="round" stroke-linejoin="round"/>
<path d="M140.723 113.304L144.309 117.321" stroke="#664187" stroke-width="2" stroke-linecap="round" stroke-linejoin="round"/>
<path d="M152.004 109.209L155.59 113.226" stroke="#664187" stroke-width="2" stroke-linecap="round" stroke-linejoin="round"/>
<path d="M144.734 121.423L156.014 117.328" stroke="#664187" stroke-width="2" stroke-linecap="round" stroke-linejoin="round"/>
<path d="M146.1 125.183L151.739 123.135" stroke="#664187" stroke-width="2" stroke-linecap="round" stroke-linejoin="round"/>
<path d="M55 28.25C55 27.2835 55.7835 26.5 56.75 26.5H60.5V28.2C60.5 29.1941 59.6941 30 58.7 30H56.75C55.7835 30 55 29.2165 55 28.25Z" stroke="#493A8B" stroke-width="2" stroke-linejoin="round"/>
<path d="M43 30.25C43 29.2835 43.7835 28.5 44.75 28.5H48V30.2C48 31.1941 47.1941 32 46.2 32H44.75C43.7835 32 43 31.2165 43 30.25Z" stroke="#493A8B" stroke-width="2" stroke-linejoin="round"/>
<path d="M48 20.022L60.5 17.0625" stroke="#493A8B" stroke-width="2" stroke-linecap="round" stroke-linejoin="round"/>
<path d="M48 30V16L60.5 13V27.8462" stroke="#493A8B" stroke-width="2" stroke-linecap="round" stroke-linejoin="round"/>
<path d="M174.695 85.9619L155.484 80.3984L153.259 88.0827L172.47 93.6461L174.695 85.9619Z" stroke="#9056E8" stroke-width="2" stroke-linecap="round" stroke-linejoin="round"/>
<path d="M172.468 93.6465L153.258 88.083L151.032 95.7673L170.243 101.331L172.468 93.6465Z" stroke="#9056E8" stroke-width="2" stroke-linecap="round" stroke-linejoin="round"/>
<path d="M156.141 88.917L155.028 92.7591" stroke="#9056E8" stroke-width="2" stroke-linecap="round" stroke-linejoin="round"/>
<path d="M159.021 89.752L157.909 93.5941" stroke="#9056E8" stroke-width="2" stroke-linecap="round" stroke-linejoin="round"/>
<path d="M163.824 91.1426L162.712 94.9847" stroke="#9056E8" stroke-width="2" stroke-linecap="round" stroke-linejoin="round"/>
<path d="M166.707 91.9775L165.594 95.8197" stroke="#9056E8" stroke-width="2" stroke-linecap="round" stroke-linejoin="round"/>
<path d="M169.588 92.8115L168.475 96.6536" stroke="#9056E8" stroke-width="2" stroke-linecap="round" stroke-linejoin="round"/>
<path d="M74.0398 35.6655C73.9197 35.1264 74.2593 34.5921 74.7983 34.4719L92.3672 30.5562C92.9063 30.4361 93.4407 30.7757 93.5608 31.3147L96.6064 44.9795C96.7265 45.5185 96.3869 46.0529 95.8479 46.1731L78.2789 50.0887C77.7399 50.2089 77.2055 49.8693 77.0853 49.3302L74.0398 35.6655Z" stroke="#493A8B" stroke-width="2" stroke-linejoin="round"/>
<path d="M89.4395 31.209L92.9201 46.8258" stroke="#493A8B" stroke-width="2" stroke-linecap="round" stroke-linejoin="round"/>
<path d="M77.7266 33.8193L81.2072 49.4362" stroke="#493A8B" stroke-width="2" stroke-linecap="round" stroke-linejoin="round"/>
<path d="M91.502 35.8721L94.4301 35.2195" stroke="#493A8B" stroke-width="2" stroke-linecap="round" stroke-linejoin="round"/>
<path d="M92.8086 41.7285L95.7367 41.0759" stroke="#493A8B" stroke-width="2" stroke-linecap="round" stroke-linejoin="round"/>
<path d="M74.9102 39.5703L77.8383 38.9177" stroke="#493A8B" stroke-width="2" stroke-linecap="round" stroke-linejoin="round"/>
<path d="M74.6934 38.5938L75.1284 40.5459" stroke="#493A8B" stroke-width="2" stroke-linecap="round" stroke-linejoin="round"/>
<path d="M76.2617 34.1455L79.1899 33.4929" stroke="#493A8B" stroke-width="2" stroke-linecap="round" stroke-linejoin="round"/>
<path d="M79.7422 49.7627L82.6703 49.1101" stroke="#493A8B" stroke-width="2" stroke-linecap="round" stroke-linejoin="round"/>
<path d="M87.9746 31.5352L90.9028 30.8825" stroke="#493A8B" stroke-width="2" stroke-linecap="round" stroke-linejoin="round"/>
<path d="M91.4551 47.1523L94.3832 46.4997" stroke="#493A8B" stroke-width="2" stroke-linecap="round" stroke-linejoin="round"/>
<path d="M76.2148 45.4268L79.143 44.7741" stroke="#493A8B" stroke-width="2" stroke-linecap="round" stroke-linejoin="round"/>
<path d="M75.998 44.4502L76.4331 46.4023" stroke="#493A8B" stroke-width="2" stroke-linecap="round" stroke-linejoin="round"/>
<path d="M95.5195 40.0996L95.9546 42.0517" stroke="#493A8B" stroke-width="2" stroke-linecap="round" stroke-linejoin="round"/>
<path d="M94.2129 34.2432L94.648 36.1953" stroke="#493A8B" stroke-width="2" stroke-linecap="round" stroke-linejoin="round"/>
<path d="M83.3145 38.209L87.7625 39.779L84.4021 43.0892L83.3145 38.209Z" stroke="#493A8B" stroke-width="2" stroke-linejoin="round"/>
<path d="M105.809 4.41211L124.919 10.3093" stroke="#945DB1" stroke-width="2" stroke-linecap="round" stroke-linejoin="round"/>
<path fill-rule="evenodd" clip-rule="evenodd" d="M107.719 5.00195L123.007 9.71967L119.174 22.1417L103.886 17.424L107.719 5.00195Z" stroke="#945DB1" stroke-width="2" stroke-linecap="round" stroke-linejoin="round"/>
<path d="M113.229 10.8877L114.88 14.0137L111.754 15.6654" stroke="#945DB1" stroke-width="2" stroke-linecap="round" stroke-linejoin="round"/>
<path d="M106.528 22.4257L111.529 19.7829L114.172 24.7845" stroke="#945DB1" stroke-width="2" stroke-linecap="round" stroke-linejoin="round"/>
<path d="M18.4289 105.929C16.6193 107.738 15.5 110.238 15.5 113C15.5 115.761 16.6193 118.261 18.4289 120.071" stroke="#945DB1" stroke-width="2" stroke-linecap="round"/>
<path d="M32.5703 120.071C34.38 118.261 35.4993 115.761 35.4993 113C35.4993 110.238 34.38 107.738 32.5703 105.929" stroke="#945DB1" stroke-width="2" stroke-linecap="round"/>
<path d="M30.4492 117.95C31.716 116.684 32.4995 114.934 32.4995 113.001C32.4995 111.068 31.716 109.318 30.4492 108.051" stroke="#945DB1" stroke-width="2" stroke-linecap="round"/>
<path d="M20.5503 108.051C19.2835 109.318 18.5 111.068 18.5 113.001C18.5 114.934 19.2835 116.684 20.5503 117.95" stroke="#945DB1" stroke-width="2" stroke-linecap="round"/>
<path d="M27.0909 111C28.1453 111 29 111.806 29 112.8C29 114.094 27.7273 115.2 27.0909 115.8C26.6667 116.2 26.1363 116.6 25.5 117C24.8637 116.6 24.3333 116.2 23.9091 115.8C23.2727 115.2 22 114.094 22 112.8C22 111.806 22.8547 111 23.9091 111C24.5731 111 25.158 111.32 25.5 111.805C25.842 111.32 26.4269 111 27.0909 111Z" stroke="#945DB1" stroke-width="2" stroke-linejoin="round"/>
<defs>
<filter id="filter0_d_1201_982" x="39.9286" y="58.9111" width="95.9827" height="85.2317" filterUnits="userSpaceOnUse" color-interpolation-filters="sRGB">
<feFlood flood-opacity="0" result="BackgroundImageFix"/>
<feColorMatrix in="SourceAlpha" type="matrix" values="0 0 0 0 0 0 0 0 0 0 0 0 0 0 0 0 0 0 127 0" result="hardAlpha"/>
<feOffset dy="3.07143"/>
<feGaussianBlur stdDeviation="1.53571"/>
<feComposite in2="hardAlpha" operator="out"/>
<feColorMatrix type="matrix" values="0 0 0 0 0 0 0 0 0 0 0 0 0 0 0 0 0 0 0.25 0"/>
<feBlend mode="normal" in2="BackgroundImageFix" result="effect1_dropShadow_1201_982"/>
<feBlend mode="normal" in="SourceGraphic" in2="effect1_dropShadow_1201_982" result="shape"/>
</filter>
</defs>
</svg>
