<svg width="25" height="25" viewBox="0 0 25 25" fill="none" xmlns="http://www.w3.org/2000/svg">
<rect width="25" height="25" fill="white"/>
<path d="M18.0149 4.31594L17.942 8.26385C17.9316 8.80552 18.2753 9.52427 18.7128 9.84719L21.2962 11.8055C22.9524 13.0555 22.6816 14.5868 20.7024 15.2118L17.3378 16.2639C16.7753 16.4409 16.1816 17.0555 16.0358 17.6284L15.2337 20.6909C14.5983 23.1076 13.0149 23.3472 11.7024 21.2222L9.8691 18.2534C9.53576 17.7118 8.7441 17.3055 8.1191 17.3368L4.63993 17.5139C2.15035 17.6389 1.44201 16.2014 3.06701 14.3055L5.12951 11.9097C5.51493 11.4618 5.69201 10.6284 5.51493 10.0659L4.46285 6.70135C3.84826 4.72219 4.95243 3.62844 6.92118 4.27427L9.9941 5.28469C10.5149 5.45135 11.2962 5.33677 11.7337 5.01385L14.942 2.70135C16.6712 1.45135 18.0566 2.18052 18.0149 4.31594ZM22.8274 22.9201L19.6712 19.7639Z" fill="#E6D117"/>
<path d="M22.8274 22.9201L19.6712 19.7639M18.0149 4.31594L17.942 8.26385C17.9316 8.80552 18.2753 9.52427 18.7128 9.84719L21.2962 11.8055C22.9524 13.0555 22.6816 14.5868 20.7024 15.2118L17.3378 16.2639C16.7753 16.4409 16.1816 17.0555 16.0358 17.6284L15.2337 20.6909C14.5983 23.1076 13.0149 23.3472 11.7024 21.2222L9.8691 18.2534C9.53576 17.7118 8.7441 17.3055 8.1191 17.3368L4.63993 17.5139C2.15035 17.6389 1.44201 16.2014 3.06701 14.3055L5.12951 11.9097C5.51493 11.4618 5.69201 10.6284 5.51493 10.0659L4.46285 6.70135C3.84826 4.72219 4.95243 3.62844 6.92118 4.27427L9.9941 5.28469C10.5149 5.45135 11.2962 5.33677 11.7337 5.01385L14.942 2.70135C16.6712 1.45135 18.0566 2.18052 18.0149 4.31594Z" stroke="#202024" stroke-width="1.60818" stroke-linecap="round" stroke-linejoin="round"/>
</svg>
