<svg width="858" height="792" viewBox="0 0 858 792" fill="none" xmlns="http://www.w3.org/2000/svg">
<path d="M14.9572 273.869C15.0402 122.615 137.723 0.0672457 288.977 0.150197L303.476 0.15815C454.73 0.241101 577.278 122.924 577.195 274.177L577.191 281.139C577.108 432.393 454.426 554.941 303.172 554.858L288.672 554.85C137.418 554.767 14.8705 432.085 14.9534 280.831L14.9572 273.869Z" fill="#9056E8" fill-opacity="0.64"/>
<path d="M0.15449 307.589C0.237442 156.335 122.92 33.787 274.174 33.8699L288.674 33.8779C439.927 33.9608 562.475 156.643 562.392 307.897L562.389 314.859C562.306 466.113 439.623 588.661 288.369 588.578L273.869 588.57C122.616 588.487 0.0677202 465.804 0.150672 314.551L0.15449 307.589Z" fill="#9056E8" fill-opacity="0.67"/>
<path d="M274.173 59.3654L288.673 59.3733C439.018 59.4558 560.83 181.402 560.747 331.747L560.744 338.709C560.661 489.054 438.715 610.866 288.37 610.784L273.87 610.776C123.525 610.693 1.71308 488.747 1.79553 338.402L1.79935 331.44C1.8818 181.095 123.828 59.2829 274.173 59.3654Z" stroke="#2C2C2C" stroke-width="3.28972"/>
<ellipse cx="537.459" cy="478.243" rx="320.336" ry="313.757" fill="#967FCF"/>
<path d="M225.861 43.448C226.263 38.381 229.394 34.0144 234.917 28.9936C238.791 25.4712 245.777 23.1436 248.496 23.2269C250.308 23.2824 253.563 23.2403 257.008 25.9813C263.693 31.2997 259.058 40.473 263.047 48.0268C266.981 55.4756 269.694 58.8014 276.677 63.5133C283.917 68.3993 289.261 69.5845 297.958 70.3998C301.263 70.7096 305.593 70.4089 308.842 70.0722C311.72 69.7739 314.593 70.912 316.361 73.2038L371.33 144.478C371.33 144.478 372.119 145.868 370.626 146.827C369.507 147.546 368.686 146.597 368.686 146.597L331.901 97.5032C331.901 97.5032 330.94 96.1128 329.925 96.5588C328.364 97.2452 329.492 98.8389 329.492 98.8389L366.112 148.988C366.112 148.988 366.984 150.429 365.679 151.268C364.373 152.106 363.398 150.835 363.398 150.835L327.189 101.16C327.189 101.16 326.519 99.3781 324.84 100.456C323.161 101.534 324.476 103.008 324.476 103.008L361.469 152.917C361.469 152.917 362.329 154.351 361.137 155.026C359.944 155.702 359.129 154.524 359.129 154.524L321.592 104.753C321.592 104.753 320.675 103.633 319.584 104.251C317.795 105.264 318.879 106.6 318.879 106.6L356.111 156.883C356.111 156.883 356.899 158.274 355.508 159.061C354.117 159.849 353.329 158.458 353.329 158.458L316.033 109.06C316.033 109.06 315.042 108.01 313.822 108.899C312.601 109.788 313.49 111.009 313.49 111.009L350.989 160.066C350.989 160.066 352.32 161.318 350.897 162.548C349.79 163.505 348.548 161.844 348.548 161.844L310.777 112.856C310.777 112.856 310.106 111.798 308.736 112.796C307.516 113.685 308.506 114.735 308.506 114.735L345.733 163.861C345.733 163.861 347.134 165.386 345.268 166.583C344.149 167.302 342.919 165.879 342.919 165.879L305.318 116.992C305.318 116.992 304.6 115.873 303.379 116.762C302.158 117.651 303.149 118.701 303.149 118.701L340.275 167.998C340.275 167.998 341.574 169.693 340.081 170.651C338.589 171.609 337.631 170.116 337.631 170.116L300.063 120.788C300.063 120.788 299.167 119.967 298.123 120.557C296.732 121.345 297.621 122.566 297.621 122.566L334.918 171.964C334.918 171.964 335.961 173.507 334.655 174.345C333.349 175.183 332.306 173.64 332.306 173.64L294.401 125.265C294.401 125.265 293.548 124.373 292.734 124.965C291.513 125.855 292.232 126.974 292.232 126.974L329.455 174.944C329.455 174.944 331.145 176.756 329.773 177.901C328.4 179.046 327.083 176.994 327.083 176.994L289.215 129.332C289.215 129.332 288.576 128.466 287.446 129.203C286.316 129.94 286.875 130.94 286.875 130.94L324.268 179.011C324.268 179.011 326.122 181.325 324.042 182.107C322.854 182.553 321.896 181.061 321.896 181.061L284.502 132.99C284.502 132.99 283.702 132.283 282.531 133.202C281.36 134.12 281.858 135.108 281.858 135.108L319.795 183.042C319.795 183.042 320.924 184.635 319.703 185.524C318.69 186.263 317.525 184.921 317.525 184.921L279.214 137.227C279.214 137.227 278.487 136.334 277.344 137.269C276.446 138.003 276.773 139.005 276.773 139.005L315.018 187.584C315.018 187.584 315.739 189.088 314.586 189.863C313.433 190.639 312.305 189.43 312.305 189.43L257.338 118.618C255.551 116.317 255.182 113.226 256.233 110.508C257.043 108.413 257.931 105.922 258.44 103.883C260.691 94.8708 261.679 89.0602 259.196 80.1096C256.761 71.3333 254.917 67.6173 248.003 61.6889C241.744 56.3224 232.21 58.2286 227.592 51.3985C225.506 48.3122 225.703 45.4304 225.861 43.448Z" fill="#2C2C2C"/>
<path d="M615.076 227.054C615.076 227.054 621.263 246.249 622.89 271.053C624.534 296.138 616.129 317.932 615.076 322.867C614.024 327.802 615.898 333.148 618.777 338.494C621.655 343.839 633.581 360.288 645.917 369.335C658.253 378.381 638.515 391.952 636.048 395.241C633.581 398.531 633.629 399.57 634.403 402.232C635.391 405.628 637.699 406.264 640.982 407.578C643.038 408.4 644.605 408.054 646.328 409.634C649.169 412.238 648.258 415.96 646.739 419.503C644.272 425.26 637.693 433.073 637.693 433.073C637.693 433.073 646.328 441.709 647.973 451.578C648.282 453.432 648.105 455.213 646.328 456.101C644.683 456.923 638.732 458.036 635.225 461.447C630.528 466.015 630.291 469.698 630.291 476.251V495.578C630.291 495.578 629.459 504.956 625.767 509.148C618.657 517.223 602.098 516.139 593.463 515.727C584.827 515.316 545.923 508.156 538.179 506.681C528.167 504.774 523.375 503.849 521.264 503.433C520.461 504.082 511.038 512.544 511.038 551.914C511.038 577.82 513.251 590.887 518.029 613.185C526.665 653.484 540.129 649.5 538.179 676.1C533.655 737.782 483.898 627.166 359.711 630.867C340.931 631.427 315.708 645.26 304.605 638.68C295.818 633.473 358.698 597.628 362.59 540.401C364.399 513.804 361.356 487.765 349.842 463.914C334.557 432.25 326.403 434.718 326.403 434.718C326.403 434.718 315.711 440.475 304.605 432.249C293.894 424.316 298.027 400.586 298.027 400.586C298.027 400.586 283.129 408.339 274.998 395.24C265.555 380.025 274.998 367.689 274.998 367.689C274.998 367.689 255.672 367.689 252.383 355.353C248.694 341.514 255.671 335.614 255.671 335.614C255.671 335.614 235.936 330.12 235.936 314.231C235.936 297.782 251.147 297.782 251.147 297.782C251.147 297.782 234.319 288.549 232.234 278.456C229.77 266.531 242.102 258.717 242.102 258.717C242.102 258.717 228.529 248.904 232.235 236.101C236.758 220.474 255.672 227.054 255.672 227.054C255.672 227.054 236.344 206.904 252.383 192.924C260.982 185.429 271.71 192.924 271.71 192.924C271.71 192.924 258.964 174.007 271.71 163.317C282.852 153.972 294.738 163.317 294.738 163.317C294.738 163.317 291.861 138.232 304.609 132.064C318.018 125.576 324.757 132.064 324.757 132.064C324.757 132.064 322.702 114.381 340.794 113.971C353.107 113.692 361.766 118.083 361.766 118.083C361.766 118.083 365.468 97.5219 383.972 97.5219C397.342 97.5219 407.823 108.625 407.823 108.625C407.823 108.625 412.758 90.5307 434.962 90.5312C445.79 90.5315 453.056 104.102 453.056 104.102C453.056 104.102 457.169 90.5312 475.673 93.8215C494.176 97.1117 492.944 113.971 492.944 113.971C492.944 113.971 500.347 92.5872 518.852 99.989C529.587 104.283 526.253 119.727 526.253 119.727C526.253 119.727 544.065 105.879 554.627 114.381C564.385 122.236 559.562 135.353 559.562 135.353C559.562 135.353 574.777 127.951 585.057 138.643C592.666 146.557 585.747 155.597 582.074 159.41C586.144 155.968 595.869 149.906 604.384 161.26C616.831 177.857 600.272 188.811 600.272 188.811C600.272 188.811 613.76 184.394 620.833 192.923C634.814 209.783 615.076 227.054 615.076 227.054Z" fill="url(#paint0_linear_850_928)"/>
<path d="M521.319 503.39C521.319 503.39 512.272 501.746 538.179 506.681C545.923 508.156 584.827 515.316 593.463 515.727C602.098 516.139 618.657 517.223 625.767 509.148C629.459 504.956 630.291 495.578 630.291 495.578C630.291 495.578 630.291 484.064 630.291 476.251C630.291 469.698 630.528 466.015 635.225 461.447C638.732 458.036 644.683 456.923 646.328 456.101C648.105 455.213 648.282 453.432 647.973 451.578C646.328 441.709 637.693 433.073 637.693 433.073C637.693 433.073 644.272 425.26 646.739 419.503C648.258 415.96 649.169 412.238 646.328 409.634C644.605 408.054 643.038 408.4 640.982 407.578C637.699 406.264 635.391 405.628 634.403 402.232C633.629 399.57 633.581 398.531 636.048 395.241C638.515 391.952 658.253 378.381 645.917 369.335C633.581 360.288 621.655 343.839 618.777 338.494C615.898 333.148 614.024 327.802 615.076 322.867C616.129 317.932 624.534 296.138 622.89 271.053C621.263 246.249 615.076 227.054 615.076 227.054C615.076 227.054 634.814 209.783 620.833 192.923C613.76 184.394 600.272 188.811 600.272 188.811C600.272 188.811 616.831 177.857 604.384 161.26C593.281 146.456 580.123 161.26 580.123 161.26C580.123 161.26 595.005 148.989 585.057 138.643C574.777 127.951 559.562 135.353 559.562 135.353C559.562 135.353 564.385 122.236 554.627 114.381C544.065 105.879 526.253 119.727 526.253 119.727C526.253 119.727 529.587 104.283 518.852 99.989C500.347 92.5872 492.944 113.971 492.944 113.971C492.944 113.971 494.176 97.1117 475.673 93.8215C457.169 90.5312 453.056 104.102 453.056 104.102C453.056 104.102 445.79 90.5315 434.962 90.5313C412.758 90.5307 407.823 108.625 407.823 108.625C407.823 108.625 397.342 97.5219 383.972 97.5219C365.468 97.5219 361.766 118.083 361.766 118.083C361.766 118.083 353.107 113.692 340.794 113.971C322.702 114.381 324.757 132.064 324.757 132.064C324.757 132.064 318.018 125.576 304.609 132.064C291.861 138.232 294.738 163.317 294.738 163.317C294.738 163.317 282.852 153.972 271.71 163.317C258.964 174.007 271.71 192.924 271.71 192.924C271.71 192.924 260.982 185.429 252.383 192.924C236.344 206.904 255.672 227.054 255.672 227.054C255.672 227.054 236.758 220.474 232.235 236.101C228.529 248.904 242.102 258.717 242.102 258.717C242.102 258.717 229.77 266.531 232.234 278.456C234.319 288.549 251.147 297.782 251.147 297.782C251.147 297.782 235.936 297.782 235.936 314.231C235.936 330.12 255.671 335.614 255.671 335.614C255.671 335.614 248.694 341.514 252.383 355.353C255.672 367.689 274.998 367.689 274.998 367.689C274.998 367.689 265.555 380.025 274.998 395.24C283.129 408.339 298.027 400.586 298.027 400.586C298.027 400.586 293.894 424.316 304.605 432.249C315.711 440.475 326.403 434.718 326.403 434.718C326.403 434.718 334.557 432.25 349.842 463.914C361.356 487.765 364.399 513.804 362.59 540.401C358.698 597.628 295.818 633.473 304.605 638.68C315.708 645.26 340.931 631.427 359.711 630.867C483.898 627.166 533.655 737.782 538.179 676.1C540.129 649.5 526.665 653.484 518.029 613.185C513.251 590.887 511.038 577.82 511.038 551.914C511.038 510.792 521.319 503.39 521.319 503.39ZM521.319 503.39L501.992 498.867" stroke="url(#paint1_linear_850_928)" stroke-width="1.64486"/>
<circle cx="7.73084" cy="7.73084" r="7.73084" transform="matrix(-1 0 0 1 844.811 131)" fill="#2C2C2C"/>
<circle cx="7.73084" cy="7.73084" r="7.73084" transform="matrix(-1 0 0 1 844.811 158.059)" fill="#2C2C2C"/>
<circle cx="7.73084" cy="7.73084" r="7.73084" transform="matrix(-1 0 0 1 817.752 158.059)" fill="#2C2C2C"/>
<circle cx="7.73084" cy="7.73084" r="7.73084" transform="matrix(-1 0 0 1 817.752 185.116)" fill="#2C2C2C"/>
<circle cx="7.73084" cy="7.73084" r="7.73084" transform="matrix(-1 0 0 1 817.752 185.116)" fill="#2C2C2C"/>
<circle cx="7.73084" cy="7.73084" r="7.73084" transform="matrix(-1 0 0 1 817.752 212.174)" fill="#2C2C2C"/>
<circle cx="7.73084" cy="7.73084" r="7.73084" transform="matrix(-1 0 0 1 817.752 239.231)" fill="#2C2C2C"/>
<circle cx="7.73084" cy="7.73084" r="7.73084" transform="matrix(-1 0 0 1 817.752 266.29)" fill="#2C2C2C"/>
<circle cx="7.73084" cy="7.73084" r="7.73084" transform="matrix(-1 0 0 1 817.752 293.348)" fill="#2C2C2C"/>
<circle cx="7.73084" cy="7.73084" r="7.73084" transform="matrix(-1 0 0 1 817.752 320.405)" fill="#2C2C2C"/>
<circle cx="7.73084" cy="7.73084" r="7.73084" transform="matrix(-1 0 0 1 817.752 347.464)" fill="#2C2C2C"/>
<circle cx="7.73084" cy="7.73084" r="7.73084" transform="matrix(-1 0 0 1 790.693 347.464)" fill="#2C2C2C"/>
<circle cx="7.73084" cy="7.73084" r="7.73084" transform="matrix(-1 0 0 1 763.635 347.464)" fill="#2C2C2C"/>
<circle cx="7.73084" cy="7.73084" r="7.73084" transform="matrix(-1 0 0 1 736.578 347.464)" fill="#2C2C2C"/>
<circle cx="7.73084" cy="7.73084" r="7.73084" transform="matrix(-1 0 0 1 709.52 347.464)" fill="#2C2C2C"/>
<circle cx="7.73084" cy="7.73084" r="7.73084" transform="matrix(-1 0 0 1 682.461 347.464)" fill="#2C2C2C"/>
<circle cx="7.73084" cy="7.73084" r="7.73084" transform="matrix(-1 0 0 1 790.693 320.405)" fill="#2C2C2C"/>
<circle cx="7.73084" cy="7.73084" r="7.73084" transform="matrix(-1 0 0 1 763.635 320.405)" fill="#2C2C2C"/>
<circle cx="7.73084" cy="7.73084" r="7.73084" transform="matrix(-1 0 0 1 736.578 320.405)" fill="#2C2C2C"/>
<circle cx="7.73084" cy="7.73084" r="7.73084" transform="matrix(-1 0 0 1 709.52 320.405)" fill="#2C2C2C"/>
<circle cx="7.73084" cy="7.73084" r="7.73084" transform="matrix(-1 0 0 1 682.461 320.405)" fill="#2C2C2C"/>
<circle cx="7.73084" cy="7.73084" r="7.73084" transform="matrix(-1 0 0 1 790.693 293.348)" fill="#2C2C2C"/>
<circle cx="7.73084" cy="7.73084" r="7.73084" transform="matrix(-1 0 0 1 763.635 293.348)" fill="#2C2C2C"/>
<circle cx="7.73084" cy="7.73084" r="7.73084" transform="matrix(-1 0 0 1 736.578 293.348)" fill="#2C2C2C"/>
<circle cx="7.73084" cy="7.73084" r="7.73084" transform="matrix(-1 0 0 1 709.52 293.348)" fill="#2C2C2C"/>
<circle cx="7.73084" cy="7.73084" r="7.73084" transform="matrix(-1 0 0 1 682.461 293.348)" fill="#2C2C2C"/>
<circle cx="7.73084" cy="7.73084" r="7.73084" transform="matrix(-1 0 0 1 790.693 266.29)" fill="#2C2C2C"/>
<circle cx="7.73084" cy="7.73084" r="7.73084" transform="matrix(-1 0 0 1 763.635 266.29)" fill="#2C2C2C"/>
<circle cx="7.73084" cy="7.73084" r="7.73084" transform="matrix(-1 0 0 1 736.578 266.29)" fill="#2C2C2C"/>
<circle cx="7.73084" cy="7.73084" r="7.73084" transform="matrix(-1 0 0 1 709.52 266.29)" fill="#2C2C2C"/>
<circle cx="7.73084" cy="7.73084" r="7.73084" transform="matrix(-1 0 0 1 682.461 266.29)" fill="#2C2C2C"/>
<circle cx="7.73084" cy="7.73084" r="7.73084" transform="matrix(-1 0 0 1 790.693 239.231)" fill="#2C2C2C"/>
<circle cx="7.73084" cy="7.73084" r="7.73084" transform="matrix(-1 0 0 1 763.635 239.231)" fill="#2C2C2C"/>
<circle cx="7.73084" cy="7.73084" r="7.73084" transform="matrix(-1 0 0 1 736.578 239.231)" fill="#2C2C2C"/>
<circle cx="7.73084" cy="7.73084" r="7.73084" transform="matrix(-1 0 0 1 709.52 239.231)" fill="#2C2C2C"/>
<circle cx="7.73084" cy="7.73084" r="7.73084" transform="matrix(-1 0 0 1 682.461 239.231)" fill="#2C2C2C"/>
<circle cx="7.73084" cy="7.73084" r="7.73084" transform="matrix(-1 0 0 1 790.693 212.174)" fill="#2C2C2C"/>
<circle cx="7.73084" cy="7.73084" r="7.73084" transform="matrix(-1 0 0 1 763.635 212.174)" fill="#2C2C2C"/>
<circle cx="7.73084" cy="7.73084" r="7.73084" transform="matrix(-1 0 0 1 736.578 212.174)" fill="#2C2C2C"/>
<circle cx="7.73084" cy="7.73084" r="7.73084" transform="matrix(-1 0 0 1 709.52 212.174)" fill="#2C2C2C"/>
<circle cx="7.73084" cy="7.73084" r="7.73084" transform="matrix(-1 0 0 1 682.461 212.174)" fill="#2C2C2C"/>
<circle cx="7.73084" cy="7.73084" r="7.73084" transform="matrix(-1 0 0 1 790.693 185.116)" fill="#2C2C2C"/>
<circle cx="7.73084" cy="7.73084" r="7.73084" transform="matrix(-1 0 0 1 763.635 185.116)" fill="#2C2C2C"/>
<circle cx="7.73084" cy="7.73084" r="7.73084" transform="matrix(-1 0 0 1 736.578 185.116)" fill="#2C2C2C"/>
<circle cx="7.73084" cy="7.73084" r="7.73084" transform="matrix(-1 0 0 1 709.52 185.116)" fill="#2C2C2C"/>
<circle cx="7.73084" cy="7.73084" r="7.73084" transform="matrix(-1 0 0 1 682.461 185.116)" fill="#2C2C2C"/>
<circle cx="7.73084" cy="7.73084" r="7.73084" transform="matrix(-1 0 0 1 790.693 158.059)" fill="#2C2C2C"/>
<circle cx="7.73084" cy="7.73084" r="7.73084" transform="matrix(-1 0 0 1 763.635 158.059)" fill="#2C2C2C"/>
<circle cx="7.73084" cy="7.73084" r="7.73084" transform="matrix(-1 0 0 1 736.578 158.059)" fill="#2C2C2C"/>
<circle cx="7.73084" cy="7.73084" r="7.73084" transform="matrix(-1 0 0 1 709.52 158.059)" fill="#2C2C2C"/>
<circle cx="7.73084" cy="7.73084" r="7.73084" transform="matrix(-1 0 0 1 682.461 158.059)" fill="#2C2C2C"/>
<circle cx="7.73084" cy="7.73084" r="7.73084" transform="matrix(-1 0 0 1 844.811 185.116)" fill="#2C2C2C"/>
<circle cx="7.73084" cy="7.73084" r="7.73084" transform="matrix(-1 0 0 1 844.811 212.174)" fill="#2C2C2C"/>
<circle cx="7.73084" cy="7.73084" r="7.73084" transform="matrix(-1 0 0 1 844.811 239.231)" fill="#2C2C2C"/>
<circle cx="7.73084" cy="7.73084" r="7.73084" transform="matrix(-1 0 0 1 844.811 266.29)" fill="#2C2C2C"/>
<circle cx="7.73084" cy="7.73084" r="7.73084" transform="matrix(-1 0 0 1 844.811 293.348)" fill="#2C2C2C"/>
<circle cx="7.73084" cy="7.73084" r="7.73084" transform="matrix(-1 0 0 1 844.811 320.405)" fill="#2C2C2C"/>
<circle cx="7.73084" cy="7.73084" r="7.73084" transform="matrix(-1 0 0 1 844.811 347.464)" fill="#2C2C2C"/>
<circle cx="7.73084" cy="7.73084" r="7.73084" transform="matrix(-1 0 0 1 817.752 131)" fill="#2C2C2C"/>
<circle cx="7.73084" cy="7.73084" r="7.73084" transform="matrix(-1 0 0 1 790.693 131)" fill="#2C2C2C"/>
<circle cx="7.73084" cy="7.73084" r="7.73084" transform="matrix(-1 0 0 1 763.635 131)" fill="#2C2C2C"/>
<circle cx="7.73084" cy="7.73084" r="7.73084" transform="matrix(-1 0 0 1 736.578 131)" fill="#2C2C2C"/>
<circle cx="7.73084" cy="7.73084" r="7.73084" transform="matrix(-1 0 0 1 709.52 131)" fill="#2C2C2C"/>
<circle cx="7.73084" cy="7.73084" r="7.73084" transform="matrix(-1 0 0 1 682.461 131)" fill="#2C2C2C"/>
<defs>
<linearGradient id="paint0_linear_850_928" x1="419.749" y1="280.512" x2="427.151" y2="730.38" gradientUnits="userSpaceOnUse">
<stop offset="0.105654" stop-color="#2C2C2C"/>
<stop offset="1" stop-color="#9056E8"/>
</linearGradient>
<linearGradient id="paint1_linear_850_928" x1="439.059" y1="81.2227" x2="439.059" y2="678.98" gradientUnits="userSpaceOnUse">
<stop stop-color="#9056E8"/>
<stop offset="1" stop-color="white"/>
</linearGradient>
</defs>
</svg>
