<svg width="25" height="25" viewBox="0 0 25 25" fill="none" xmlns="http://www.w3.org/2000/svg">
<path d="M5.20768 22.9168H19.791C20.3663 22.9168 20.8327 22.4505 20.8327 21.8752V7.29183H15.6243V2.0835H5.20768C4.63239 2.0835 4.16602 2.54987 4.16602 3.12516V21.8752C4.16602 22.4505 4.63239 22.9168 5.20768 22.9168Z" stroke="white" stroke-width="2" stroke-linecap="round" stroke-linejoin="round"/>
<path d="M15.625 2.0835L20.8333 7.29183" stroke="white" stroke-width="2" stroke-linecap="round" stroke-linejoin="round"/>
<path d="M9.37435 10.9377C10.5249 10.9377 11.4577 10.0049 11.4577 8.85433C11.4577 7.70374 10.5249 6.771 9.37435 6.771C8.22376 6.771 7.29102 7.70374 7.29102 8.85433C7.29102 10.0049 8.22376 10.9377 9.37435 10.9377Z" stroke="white" stroke-width="2" stroke-linecap="round" stroke-linejoin="round"/>
<path d="M7.8125 14.5833V19.2708H17.1875V10.9375L12.2341 16.4062L7.8125 14.5833Z" stroke="white" stroke-width="2" stroke-linecap="round" stroke-linejoin="round"/>
</svg>
