<svg width="1512" height="724" viewBox="0 0 1512 724" fill="none" xmlns="http://www.w3.org/2000/svg">
<path d="M-87.035 -258.321L-87.5214 167.491L-88.1495 717.286C-88.1519 719.363 -86.6011 721.049 -84.5239 721.052C-45.6755 721.105 293.855 721.57 392.702 721.596C497.6 721.624 496.301 551.093 392.747 551.611C289.192 552.128 241.783 551.832 158.333 551.003C74.8821 550.175 81.3828 433.885 158.466 433.905C235.55 433.926 876.08 434.097 961.441 434.12C1046.8 434.144 1061.63 263.973 961.485 263.948C886.112 263.93 611.824 263.856 448.568 263.812L334.584 263.781C259.119 263.761 268.458 146.881 334.615 146.899L581.009 146.964C710.815 146.999 710.861 -23.3259 581.204 -23.3604C451.547 -23.395 295.098 -23.4056 205.902 -23.7892C116.706 -24.1727 122.789 -151.021 206.048 -151.533C289.307 -152.045 707.199 -150.865 815.914 -150.836C924.629 -150.807 927.363 -321.131 816.108 -321.161C707.491 -321.19 17.2598 -322.069 -15.3952 -322.111L-16.5928 -322.112C-16.6016 -322.112 -16.6029 -322.112 -16.6056 -322.112L-16.616 -322.113C-67.0587 -322.775 -82.2043 -308.284 -87.035 -258.321Z" fill="#664187"/>
<path d="M779.924 551.714L779.924 551.714C779.936 551.714 779.917 551.713 779.929 551.714C780.298 551.72 824.521 552.535 932.393 551.888C1040.72 551.238 1036.64 722.241 932.198 722.213L863.982 722.194C784.825 722.173 708.476 722.152 627.319 722.131C523.141 722.104 534.612 551.104 627.365 551.128C719.81 551.153 779.529 551.71 779.924 551.714Z" fill="#664187"/>
<path d="M-87.035 -258.321L-87.5214 167.491L-88.1495 717.286C-88.1519 719.363 -86.6011 721.049 -84.5239 721.052C-45.6755 721.105 293.855 721.57 392.702 721.596C497.6 721.624 496.301 551.093 392.747 551.611C289.192 552.128 241.783 551.832 158.333 551.003C74.8821 550.175 81.3828 433.885 158.466 433.905C235.55 433.926 876.08 434.097 961.441 434.12C1046.8 434.144 1061.63 263.973 961.485 263.948C886.112 263.93 611.824 263.856 448.568 263.812L334.584 263.781C259.119 263.761 268.458 146.881 334.615 146.899L581.009 146.964C710.815 146.999 710.861 -23.3259 581.204 -23.3604C451.547 -23.395 295.098 -23.4056 205.902 -23.7892C116.706 -24.1727 122.789 -151.021 206.048 -151.533C289.307 -152.045 707.199 -150.865 815.914 -150.836C924.629 -150.807 927.363 -321.131 816.108 -321.161C707.491 -321.19 17.2598 -322.069 -15.3952 -322.111L-16.5928 -322.112C-16.6016 -322.112 -16.6029 -322.112 -16.6056 -322.112L-16.616 -322.113C-67.0587 -322.775 -82.2043 -308.284 -87.035 -258.321Z" stroke="#967FCF" stroke-width="1.25392"/>
<path d="M779.924 551.714L779.924 551.714C779.936 551.714 779.917 551.713 779.929 551.714C780.298 551.72 824.521 552.535 932.393 551.888C1040.72 551.238 1036.64 722.241 932.198 722.213L863.982 722.194C784.825 722.173 708.476 722.152 627.319 722.131C523.141 722.104 534.612 551.104 627.365 551.128C719.81 551.153 779.529 551.71 779.924 551.714Z" stroke="#967FCF" stroke-width="1.25392"/>
<rect x="1646.01" y="723.023" width="278.371" height="161.756" rx="80.8781" transform="rotate(-179.935 1646.01 723.023)" fill="#664187"/>
<rect x="1417" y="433.064" width="359.875" height="161.756" rx="80.8778" transform="rotate(-179.935 1417 433.064)" fill="#664187"/>
<rect x="1236.64" y="143.248" width="359.875" height="161.756" rx="80.8778" transform="rotate(-179.935 1236.64 143.248)" fill="#664187"/>
</svg>
