<svg width="46" height="40" viewBox="0 0 46 40" fill="none" xmlns="http://www.w3.org/2000/svg">
<path d="M0.0839844 39.7498L23.0007 0.166504L45.9173 39.7498H0.0839844ZM7.27148 35.5832H38.7298L23.0007 8.49984L7.27148 35.5832ZM23.0007 33.4998C23.5909 33.4998 24.0861 33.2998 24.4861 32.8998C24.8861 32.4998 25.0854 32.0054 25.084 31.4165C25.084 30.8262 24.884 30.3311 24.484 29.9311C24.084 29.5311 23.5895 29.3318 23.0007 29.3332C22.4104 29.3332 21.9152 29.5332 21.5152 29.9332C21.1152 30.3332 20.9159 30.8276 20.9173 31.4165C20.9173 32.0068 21.1173 32.5019 21.5173 32.9019C21.9173 33.3019 22.4118 33.5012 23.0007 33.4998ZM20.9173 27.2498H25.084V16.8332H20.9173V27.2498Z" fill="#202020"/>
</svg>
