<svg width="30" height="30" viewBox="0 0 30 30" fill="none" xmlns="http://www.w3.org/2000/svg">
<path d="M30 28.1628V15.9181V0.177243C30 0.0793543 29.9206 0 29.8228 0H17.5034C17.4466 0 17.3927 0.0278412 17.3598 0.0741287C16.2398 1.64983 16.2556 2.67996 17.3628 4.80234C17.3932 4.86058 17.4541 4.89787 17.5198 4.89787H23.4451C23.5114 4.89787 23.5724 4.93515 23.6022 4.99441C24.2168 6.21916 24.2232 6.94651 23.6024 8.16941C23.5725 8.22824 23.5117 8.26516 23.4457 8.26516H0.9421C0.876275 8.26516 0.815471 8.30227 0.785115 8.36067C-0.144 10.1484 -0.372241 11.2259 0.782649 13.0799C0.814671 13.1313 0.871726 13.163 0.93229 13.163H18.8519C18.9118 13.163 18.9681 13.1937 19.0003 13.2443C19.7634 14.4432 19.8333 15.1691 19.0006 16.4505C18.9683 16.5002 18.9124 16.5303 18.8532 16.5303H12.5833C12.5311 16.5303 12.4808 16.5542 12.4474 16.5942C10.8299 18.5301 10.7804 19.6037 12.4481 21.3724C12.4813 21.4076 12.5284 21.4282 12.5768 21.4282H22.2244C22.2868 21.4282 22.345 21.4614 22.3764 21.5153C23.1166 22.7863 23.1647 23.5774 22.3758 25.0106C22.3449 25.0666 22.2855 25.1016 22.2215 25.1016H6.41081C6.37826 25.1016 6.3458 25.1108 6.31815 25.128C4.12532 26.4893 3.8512 28.581 6.32023 29.9766C6.34644 29.9914 6.37685 29.9995 6.40696 29.9995H28.158C29.4789 30.017 29.875 29.5999 30 28.1628Z" fill="#202020"/>
<path d="M11.4953 4.89787H7.28205H3.37441C3.32162 4.89787 3.27073 4.8734 3.23724 4.83259C1.46652 2.67532 1.39436 1.60856 3.24097 0.042221C3.2727 0.0153022 3.31387 0 3.35548 0H11.5016C11.5516 0 11.6 0.0218113 11.6333 0.0590226C13.18 1.78558 13.1853 2.88198 11.6338 4.83082C11.6004 4.87276 11.5489 4.89787 11.4953 4.89787Z" fill="#202020"/>
<path d="M6.88809 16.5303H3.90506H1.82947C1.78247 16.5303 1.73652 16.5498 1.70345 16.5832C-0.175166 18.4803 -0.205336 19.5486 1.70405 21.3786C1.73681 21.41 1.78136 21.4282 1.82674 21.4282H6.88494C6.94157 21.4282 6.9955 21.4003 7.02856 21.3543C8.40429 19.4407 8.38259 18.376 7.02865 16.6001C6.99539 16.5565 6.94294 16.5303 6.88809 16.5303Z" fill="#202020"/>
</svg>
