<svg width="24" height="24" viewBox="0 0 24 24" fill="none" xmlns="http://www.w3.org/2000/svg">
<path d="M19.2 17.1429C18.9328 17.1442 18.6693 17.2101 18.4291 17.3357L15.8495 14.5714H13.8008V15.8571H15.3522L17.5808 18.2454C17.4635 18.5027 17.4018 18.785 17.4003 19.0714C17.4003 19.4529 17.5058 19.8257 17.7036 20.1429C17.9013 20.46 18.1824 20.7072 18.5113 20.8532C18.8401 20.9992 19.202 21.0374 19.5511 20.9629C19.9002 20.8885 20.2209 20.7048 20.4726 20.4351C20.7243 20.1654 20.8957 19.8218 20.9652 19.4477C21.0346 19.0736 20.999 18.6858 20.8627 18.3334C20.7265 17.981 20.4958 17.6798 20.1999 17.4679C19.9039 17.256 19.5559 17.1429 19.2 17.1429ZM19.2 10.0714C18.829 10.0726 18.4674 10.1968 18.1649 10.427C17.8625 10.6573 17.6339 10.9822 17.5106 11.3571H13.8008V12.6429H17.5106C17.6212 12.9753 17.8148 13.2688 18.0705 13.4913C18.3262 13.7138 18.634 13.8568 18.9603 13.9045C19.2866 13.9522 19.6189 13.9029 19.9209 13.7619C20.2228 13.6209 20.4828 13.3937 20.6724 13.1051C20.862 12.8165 20.9739 12.4777 20.9959 12.1255C21.0179 11.7734 20.9492 11.4215 20.7972 11.1084C20.6453 10.7953 20.4159 10.5329 20.1342 10.3501C19.8525 10.1672 19.5294 10.0708 19.2 10.0714ZM19.2 3C18.7228 3.00051 18.2653 3.20386 17.9279 3.56543C17.5905 3.927 17.4007 4.41724 17.4003 4.92857C17.4023 5.23654 17.4739 5.53939 17.609 5.81122L15.3582 8.14286H13.8008V9.42857H15.8429L18.4825 6.69514C18.7277 6.80972 18.9937 6.86427 19.261 6.85481C19.5284 6.84535 19.7904 6.77212 20.028 6.64046C20.2656 6.50879 20.4729 6.32201 20.6346 6.0937C20.7964 5.86539 20.9086 5.60131 20.9631 5.32067C21.0175 5.04003 21.013 4.7499 20.9496 4.4714C20.8863 4.1929 20.7658 3.93304 20.5969 3.71074C20.428 3.48845 20.215 3.3093 19.9733 3.18635C19.7317 3.0634 19.4675 2.99974 19.2 3Z" fill="#664187"/>
<path d="M13.1556 6.12244H14.3V5H13.1556C12.8295 5.00107 12.5074 5.07088 12.2112 5.2047C11.915 5.33851 11.6516 5.53321 11.4389 5.7756C11.2261 5.53321 10.9627 5.33851 10.6666 5.2047C10.3704 5.07088 10.0483 5.00107 9.72222 5H9.15C7.7846 5.00149 6.47556 5.53412 5.51007 6.48103C4.54459 7.42795 4.00151 8.71182 4 10.051V13.4183C4.00151 14.7574 4.54459 16.0413 5.51007 16.9882C6.47556 17.9351 7.7846 18.4677 9.15 18.4692H9.72222C10.0483 18.4682 10.3704 18.3984 10.6666 18.2645C10.9627 18.1307 11.2261 17.936 11.4389 17.6936C11.6516 17.936 11.915 18.1307 12.2112 18.2645C12.5074 18.3984 12.8295 18.4682 13.1556 18.4692H14.3V17.3468H13.1556C12.8521 17.3465 12.5612 17.2281 12.3466 17.0177C12.1321 16.8073 12.0114 16.522 12.0111 16.2244V7.24487C12.0114 6.94727 12.1321 6.66195 12.3466 6.45152C12.5612 6.24108 12.8521 6.12273 13.1556 6.12244Z" fill="#664187"/>
<path d="M5.2793 10.0417H6.52476C7.35319 10.0417 8.02476 9.37011 8.02476 8.54168V7.68164" stroke="#664187"/>
<path d="M10.7695 13.3919L9.97601 13.3919C9.14758 13.3919 8.47601 14.0635 8.47601 14.8919L8.47601 15.752" stroke="#664187"/>
<path d="M10.7695 11.0312L9.35635 11.0312" stroke="#664187"/>
<path d="M6.69336 13.0078L5.28018 13.0078" stroke="#664187"/>
</svg>
