<svg width="218" height="194" viewBox="0 0 218 194" fill="none" xmlns="http://www.w3.org/2000/svg">
<path d="M90.4414 2.02344H95.1618V6.7438" stroke="#9056E8" stroke-width="1.11994" stroke-linecap="round" stroke-linejoin="round"/>
<path d="M95.1615 9.93804V13.15C95.1615 13.7087 94.7087 14.1615 94.15 14.1615H84.0349C83.4763 14.1615 83.0234 13.7087 83.0234 13.15V3.03494C83.0234 2.47631 83.4763 2.02344 84.0349 2.02344H87.0695" stroke="#9056E8" stroke-width="1.11994" stroke-linecap="round" stroke-linejoin="round"/>
<path d="M89.6992 7.48584L94.8579 2.32715" stroke="#9056E8" stroke-width="1.11994" stroke-linecap="round" stroke-linejoin="round"/>
<path d="M31 57.19L28.3996 54.5896M27.0351 41.8624L26.975 45.115C26.9664 45.5612 27.2496 46.1534 27.6101 46.4194L29.7384 48.0329C31.103 49.0627 30.8799 50.3243 29.2493 50.8392L26.4772 51.706C26.0138 51.8519 25.5246 52.3582 25.4045 52.8303L24.7437 55.3534C24.2202 57.3444 22.9157 57.5418 21.8343 55.7911L20.3239 53.3452C20.0493 52.8989 19.397 52.5642 18.8821 52.59L16.0157 52.7359C13.9646 52.8388 13.381 51.6545 14.7198 50.0926L16.419 48.1187C16.7366 47.7497 16.8825 47.0631 16.7366 46.5997L15.8698 43.8277C15.3634 42.1971 16.2731 41.2959 17.8952 41.828L20.4269 42.6605C20.856 42.7978 21.4996 42.7034 21.8601 42.4374L24.5034 40.5321C25.928 39.5023 27.0694 40.103 27.0351 41.8624Z" stroke="#9056E8" stroke-linecap="round" stroke-linejoin="round"/>
<path d="M181.891 33.7141C181.891 33.7141 190.349 27.9341 189.291 26.9708C188.234 26.0075 188.234 26.0075 187.177 25.0442C186.429 24.363 179.776 31.7874 179.776 31.7874M181.891 33.7141L179.776 31.7874M181.891 33.7141L176.604 37.5674M179.776 31.7874L175.547 36.6041M175.547 36.6041L176.035 37.0486L176.604 37.5674M175.547 36.6041C175.547 36.6041 174.898 36.5509 174.49 36.6041C173.576 36.723 172.929 36.8944 172.375 37.5674C171.632 38.4703 172.191 41.5043 172.375 41.4207C172.617 41.3104 172.375 40.4574 173.432 40.4574C174.358 40.4574 174.333 40.4826 174.49 40.4574C175.154 40.3505 176.035 39.7547 176.035 39.7547C176.035 39.7547 176.604 39.2213 176.604 38.5307C176.604 37.8401 176.604 37.5674 176.604 37.5674" stroke="#9056E8"/>
<path d="M174.488 41.4192C174.488 41.4192 178.32 42.3825 180.832 42.3825C184.004 42.3825 187.176 41.4192 187.176 40.4559C187.176 38.047 181.889 37.6872 181.889 36.6026C181.889 34.6759 187.176 35.6393 187.176 35.6393" stroke="#9056E8" stroke-width="0.895528"/>
<g filter="url(#filter0_d_986_985)">
<path fill-rule="evenodd" clip-rule="evenodd" d="M67.1371 188.482C102.559 188.482 131.274 161.511 131.274 128.241C131.274 94.9708 102.559 68 67.1371 68C31.7151 68 3 94.9708 3 128.241C3 161.511 31.7151 188.482 67.1371 188.482ZM67.3003 158.511C84.2734 158.511 98.0329 145.093 98.0329 128.54C98.0329 111.988 84.2734 98.5699 67.3003 98.5699C50.3272 98.5699 36.5677 111.988 36.5677 128.54C36.5677 145.093 50.3272 158.511 67.3003 158.511Z" fill="#9056E8" fill-opacity="0.6" shape-rendering="crispEdges"/>
</g>
<g filter="url(#filter1_d_986_985)">
<path fill-rule="evenodd" clip-rule="evenodd" d="M151.137 160.482C186.559 160.482 215.274 133.511 215.274 100.241C215.274 66.9708 186.559 40 151.137 40C115.715 40 87 66.9708 87 100.241C87 133.511 115.715 160.482 151.137 160.482ZM151.3 130.511C168.273 130.511 182.033 117.093 182.033 100.54C182.033 83.9882 168.273 70.5699 151.3 70.5699C134.327 70.5699 120.568 83.9882 120.568 100.54C120.568 117.093 134.327 130.511 151.3 130.511Z" fill="white" fill-opacity="0.84" shape-rendering="crispEdges"/>
</g>
<path d="M1 189.5H215V23" stroke="#664187" stroke-width="2"/>
<g filter="url(#filter2_d_986_985)">
<path d="M44 71.9941C44 68.6837 46.6837 66 49.9941 66H68.0059C71.3163 66 74 68.6837 74 71.9941V188H44V71.9941Z" fill="#9056E8"/>
</g>
<g filter="url(#filter3_d_986_985)">
<path d="M97 52.9941C97 49.6836 99.6837 47 102.994 47H121.006C124.316 47 127 49.6837 127 52.9941V188H97V52.9941Z" fill="#9056E8"/>
</g>
<g filter="url(#filter4_d_986_985)">
<path d="M151 77.9941C151 74.6837 153.684 72 156.994 72H175.006C178.316 72 181 74.6837 181 77.9941V188H151V77.9941Z" fill="#9056E8"/>
</g>
<path d="M0.598657 86.5811L2.54202 89.4405L5.40134 87.4971L3.45798 84.6378L0.598657 86.5811ZM67.7365 77.7482L67.4576 77.4296L67.7365 77.7482ZM108.796 25L108.796 25.4234L108.796 25.4234L108.796 25ZM150.156 63.3615L150.254 62.9498L150.156 63.3615ZM182.5 59.5L182.377 59.9051L182.377 59.9051L182.5 59.5ZM210.434 79.7281L210.98 76.3143L207.566 75.7683L207.02 79.1822L210.434 79.7281ZM3 87.0391C2.92067 87.455 2.92068 87.455 2.92069 87.455C2.9207 87.455 2.92071 87.455 2.92072 87.455C2.92074 87.455 2.92077 87.4551 2.92081 87.4551C2.92089 87.4551 2.92099 87.4551 2.92113 87.4551C2.9214 87.4552 2.9218 87.4553 2.92232 87.4554C2.92336 87.4555 2.92489 87.4558 2.9269 87.4562C2.93092 87.457 2.93689 87.4581 2.94477 87.4596C2.96053 87.4626 2.98395 87.467 3.01482 87.4728C3.07656 87.4843 3.1681 87.5013 3.28777 87.5233C3.52712 87.5672 3.87899 87.6308 4.33002 87.7098L4.47617 86.8757C4.02748 86.7971 3.67781 86.7339 3.44054 86.6903C3.3219 86.6686 3.23137 86.6518 3.17061 86.6404C3.14023 86.6347 3.11729 86.6304 3.10201 86.6275C3.09437 86.626 3.08864 86.625 3.08485 86.6242C3.08295 86.6239 3.08154 86.6236 3.08062 86.6234C3.08016 86.6233 3.07982 86.6233 3.07961 86.6232C3.0795 86.6232 3.07942 86.6232 3.07937 86.6232C3.07935 86.6232 3.07933 86.6232 3.07933 86.6232C3.07932 86.6232 3.07932 86.6232 3.07932 86.6232C3.07932 86.6232 3.07933 86.6232 3 87.0391ZM7.16505 88.1841C8.01329 88.3199 8.96643 88.4672 10.0036 88.6195L10.1266 87.7816C9.09332 87.6299 8.14381 87.4831 7.29889 87.3479L7.16505 88.1841ZM12.8488 89.0183C13.7626 89.1403 14.7171 89.2618 15.7021 89.3795L15.8026 88.5386C14.8217 88.4214 13.8711 88.3004 12.9609 88.1789L12.8488 89.0183ZM18.5552 89.699C19.4942 89.7969 20.4506 89.8892 21.4171 89.9735L21.4907 89.1298C20.5293 89.046 19.5776 88.9542 18.643 88.8567L18.5552 89.699ZM24.2836 90.1961C25.2408 90.2608 26.2006 90.3156 27.1559 90.3581L27.1936 89.5121C26.2453 89.4699 25.292 89.4155 24.3408 89.3512L24.2836 90.1961ZM30.0329 90.4474C30.5159 90.4554 30.996 90.4596 31.4721 90.4596V89.6127C31.0009 89.6127 30.5255 89.6086 30.0469 89.6007L30.0329 90.4474ZM31.4721 90.4596C32.016 90.4596 32.5617 90.4503 33.1085 90.4321L33.0803 89.5857C32.5427 89.6036 32.0064 89.6127 31.4721 89.6127V90.4596ZM36.3736 90.2214C37.4563 90.1187 38.5395 89.9843 39.6188 89.8211L39.4922 88.9838C38.4277 89.1448 37.3601 89.2772 36.2936 89.3783L36.3736 90.2214ZM42.8363 89.2487C43.9067 89.0301 44.9693 88.7854 46.0198 88.5175L45.8105 87.6969C44.7728 87.9616 43.7236 88.2032 42.6669 88.419L42.8363 89.2487ZM49.1653 87.6361C50.2173 87.3148 51.2522 86.9718 52.2654 86.6104L51.9808 85.8128C50.9799 86.1699 49.9574 86.5087 48.9179 86.8262L49.1653 87.6361ZM55.316 85.4403C56.344 85.0176 57.342 84.5773 58.3046 84.1234L57.9434 83.3574C56.994 83.8052 56.009 84.2397 54.994 84.657L55.316 85.4403ZM61.2231 82.6467C62.2198 82.1054 63.1641 81.5513 64.048 80.9898L63.5939 80.275C62.7275 80.8254 61.7999 81.3698 60.819 81.9025L61.2231 82.6467ZM66.7422 79.1108C67.1924 78.7634 67.6174 78.415 68.0153 78.0669L67.4576 77.4296C67.0739 77.7653 66.6624 78.1027 66.2248 78.4404L66.7422 79.1108ZM68.0153 78.0669C68.3856 77.7428 68.7417 77.371 69.0856 76.9572L68.4344 76.4159C68.1143 76.8009 67.7891 77.1395 67.4576 77.4296L68.0153 78.0669ZM70.7872 74.4395C71.253 73.6201 71.7044 72.7195 72.1474 71.7521L71.3775 71.3995C70.942 72.3505 70.5016 73.2282 70.051 74.021L70.7872 74.4395ZM73.3172 69.0136C73.6765 68.1206 74.0345 67.1883 74.3941 66.2245L73.6007 65.9284C73.2428 66.8876 72.8875 67.8129 72.5316 68.6975L73.3172 69.0136ZM75.4131 63.4369C75.7418 62.5236 76.0749 61.5894 76.4142 60.6411L75.6168 60.3559C75.2772 61.3053 74.9447 62.2379 74.6163 63.15L75.4131 63.4369ZM77.4207 57.8466C77.7555 56.9269 78.0981 55.9986 78.4504 55.066L77.6582 54.7667C77.3044 55.7033 76.9606 56.6349 76.625 57.5569L77.4207 57.8466ZM79.5203 52.3062C79.8847 51.3927 80.2601 50.4796 80.6485 49.5708L79.8698 49.238C79.4783 50.1539 79.1003 51.0735 78.7337 51.9925L79.5203 52.3062ZM81.8507 46.8699C82.2664 45.9751 82.6967 45.089 83.1436 44.2156L82.3897 43.8299C81.9375 44.7137 81.5024 45.6096 81.0827 46.5132L81.8507 46.8699ZM84.5452 41.6212C85.0358 40.7627 85.5453 39.9219 86.0756 39.1032L85.3649 38.6428C84.8253 39.4758 84.3077 40.33 83.8099 41.201L84.5452 41.6212ZM87.7531 36.6878C88.343 35.8974 88.9567 35.1351 89.5962 34.4055L88.9594 33.8473C88.3042 34.5948 87.6766 35.3745 87.0744 36.1812L87.7531 36.6878ZM91.6222 32.2928C92.3327 31.6185 93.0723 30.9834 93.8433 30.3923L93.3281 29.7203C92.5322 30.3304 91.77 30.985 91.0393 31.6786L91.6222 32.2928ZM96.2558 28.7542C97.0856 28.2599 97.9487 27.8137 98.8474 27.4202L98.5078 26.6445C97.5759 27.0524 96.6815 27.5149 95.8224 28.0266L96.2558 28.7542ZM101.583 26.4235C102.494 26.1555 103.438 25.9378 104.418 25.7749L104.28 24.9395C103.266 25.1081 102.288 25.3333 101.344 25.6112L101.583 26.4235ZM107.316 25.4618C107.801 25.4364 108.295 25.4234 108.796 25.4234L108.796 24.5766C108.28 24.5766 107.772 24.5899 107.272 24.6161L107.316 25.4618ZM108.796 25.4234C109.303 25.4234 109.799 25.4357 110.285 25.4598L110.327 24.614C109.827 24.5892 109.317 24.5766 108.796 24.5766L108.796 25.4234ZM113.191 25.7607C114.192 25.9218 115.142 26.1383 116.048 26.4048L116.287 25.5924C115.346 25.3156 114.361 25.0913 113.326 24.9246L113.191 25.7607ZM118.785 27.4185C119.689 27.8267 120.543 28.2905 121.352 28.803L121.806 28.0875C120.964 27.5544 120.075 27.0717 119.134 26.6467L118.785 27.4185ZM123.711 30.5287C124.46 31.156 125.168 31.8287 125.841 32.5395L126.456 31.9573C125.763 31.2248 125.031 30.5294 124.254 29.8793L123.711 30.5287ZM127.754 34.7725C128.355 35.543 128.927 36.3433 129.475 37.1662L130.18 36.6967C129.622 35.8586 129.038 35.041 128.422 34.2518L127.754 34.7725ZM131.043 39.6753C131.543 40.5247 132.026 41.3886 132.497 42.2601L133.242 41.8577C132.767 40.9792 132.279 40.1059 131.772 39.2454L131.043 39.6753ZM133.879 44.8926C134.335 45.7806 134.784 46.667 135.232 47.5479L135.987 47.1637C135.54 46.2852 135.09 45.3954 134.632 44.5055L133.879 44.8926ZM136.603 50.204C137.074 51.0979 137.551 51.9762 138.039 52.8295L138.774 52.4088C138.292 51.5665 137.82 50.6973 137.352 49.8091L136.603 50.204ZM139.608 55.3998C140.172 56.2586 140.759 57.079 141.377 57.8491L142.037 57.3191C141.439 56.5737 140.868 55.7757 140.316 54.935L139.608 55.3998ZM143.428 60.0874C144.177 60.7934 144.975 61.4272 145.83 61.9733L146.286 61.2594C145.48 60.7449 144.724 60.1449 144.008 59.471L143.428 60.0874ZM148.582 63.3322C149.057 63.5042 149.549 63.6517 150.057 63.7733L150.254 62.9498C149.777 62.8355 149.316 62.697 148.869 62.5358L148.582 63.3322ZM150.057 63.7733C150.529 63.8862 150.989 63.987 151.439 64.0765L151.604 63.2459C151.165 63.1586 150.715 63.0601 150.254 62.9498L150.057 63.7733ZM154.232 64.5053C155.227 64.6104 156.166 64.6558 157.056 64.6508L157.051 63.804C156.193 63.8088 155.286 63.765 154.321 63.6632L154.232 64.5053ZM159.89 64.4558C160.876 64.3231 161.797 64.1289 162.669 63.8921L162.448 63.0748C161.608 63.3027 160.723 63.4892 159.777 63.6165L159.89 64.4558ZM165.355 62.9949C166.253 62.6431 167.106 62.2626 167.935 61.8839L167.582 61.1137C166.758 61.4906 165.922 61.8633 165.046 62.2064L165.355 62.9949ZM170.464 60.7385C171.311 60.3734 172.155 60.0421 173.027 59.774L172.778 58.9646C171.866 59.2449 170.991 59.5889 170.129 59.9609L170.464 60.7385ZM175.671 59.1997C176.519 59.096 177.412 59.066 178.369 59.1328L178.428 58.288C177.415 58.2174 176.468 58.249 175.568 58.3591L175.671 59.1997ZM181.054 59.5482C181.482 59.6485 181.922 59.7669 182.377 59.9051L182.623 59.0949C182.152 58.9516 181.694 58.8283 181.248 58.7237L181.054 59.5482ZM182.377 59.9051C182.898 60.0634 183.411 60.2292 183.918 60.4018L184.191 59.6002C183.676 59.4246 183.153 59.256 182.623 59.0949L182.377 59.9051ZM186.946 61.5462C187.963 61.9687 188.947 62.4166 189.897 62.8841L190.271 62.1242C189.305 61.6491 188.305 61.1938 187.271 60.7642L186.946 61.5462ZM192.76 64.404C193.723 64.9537 194.645 65.5194 195.525 66.0934L195.988 65.3841C195.094 64.8013 194.158 64.2268 193.179 63.6685L192.76 64.404ZM198.186 67.9394C199.095 68.6093 199.948 69.2792 200.743 69.9372L201.283 69.2848C200.476 68.6172 199.611 67.9375 198.688 67.2577L198.186 67.9394ZM203.183 72.0735C204.055 72.8814 204.826 73.6462 205.495 74.3413L206.105 73.7544C205.426 73.0484 204.643 72.272 203.758 71.4522L203.183 72.0735ZM207.661 76.7452C207.993 77.1419 208.244 77.4566 208.41 77.6711C208.494 77.7784 208.556 77.8607 208.597 77.9157C208.618 77.9432 208.633 77.9639 208.643 77.9774C208.648 77.9842 208.652 77.9892 208.654 77.9925C208.655 77.9941 208.656 77.9952 208.657 77.9959C208.657 77.9962 208.657 77.9965 208.657 77.9966C208.657 77.9966 208.657 77.9967 208.657 77.9967C208.657 77.9967 208.657 77.9967 208.657 77.9967C208.657 77.9967 208.657 77.9966 208.657 77.9966C208.657 77.9966 208.657 77.9966 209 77.7482C209.343 77.4999 209.343 77.4998 209.343 77.4998C209.343 77.4998 209.343 77.4998 209.343 77.4998C209.343 77.4997 209.343 77.4997 209.343 77.4996C209.343 77.4995 209.343 77.4994 209.342 77.4992C209.342 77.4988 209.342 77.4984 209.341 77.4978C209.341 77.4967 209.339 77.495 209.338 77.493C209.335 77.4889 209.331 77.4829 209.325 77.4752C209.314 77.4598 209.297 77.4372 209.275 77.4079C209.231 77.3491 209.165 77.263 209.079 77.1517C208.906 76.9293 208.649 76.6064 208.31 76.2012L207.661 76.7452Z" fill="#664187"/>
<defs>
<filter id="filter0_d_986_985" x="0.602353" y="68" width="133.069" height="125.277" filterUnits="userSpaceOnUse" color-interpolation-filters="sRGB">
<feFlood flood-opacity="0" result="BackgroundImageFix"/>
<feColorMatrix in="SourceAlpha" type="matrix" values="0 0 0 0 0 0 0 0 0 0 0 0 0 0 0 0 0 0 127 0" result="hardAlpha"/>
<feOffset dy="2.39765"/>
<feGaussianBlur stdDeviation="1.19882"/>
<feComposite in2="hardAlpha" operator="out"/>
<feColorMatrix type="matrix" values="0 0 0 0 0 0 0 0 0 0 0 0 0 0 0 0 0 0 0.25 0"/>
<feBlend mode="normal" in2="BackgroundImageFix" result="effect1_dropShadow_986_985"/>
<feBlend mode="normal" in="SourceGraphic" in2="effect1_dropShadow_986_985" result="shape"/>
</filter>
<filter id="filter1_d_986_985" x="84.6024" y="40" width="133.069" height="125.277" filterUnits="userSpaceOnUse" color-interpolation-filters="sRGB">
<feFlood flood-opacity="0" result="BackgroundImageFix"/>
<feColorMatrix in="SourceAlpha" type="matrix" values="0 0 0 0 0 0 0 0 0 0 0 0 0 0 0 0 0 0 127 0" result="hardAlpha"/>
<feOffset dy="2.39765"/>
<feGaussianBlur stdDeviation="1.19882"/>
<feComposite in2="hardAlpha" operator="out"/>
<feColorMatrix type="matrix" values="0 0 0 0 0 0 0 0 0 0 0 0 0 0 0 0 0 0 0.25 0"/>
<feBlend mode="normal" in2="BackgroundImageFix" result="effect1_dropShadow_986_985"/>
<feBlend mode="normal" in="SourceGraphic" in2="effect1_dropShadow_986_985" result="shape"/>
</filter>
<filter id="filter2_d_986_985" x="41.6024" y="66" width="34.7953" height="126.795" filterUnits="userSpaceOnUse" color-interpolation-filters="sRGB">
<feFlood flood-opacity="0" result="BackgroundImageFix"/>
<feColorMatrix in="SourceAlpha" type="matrix" values="0 0 0 0 0 0 0 0 0 0 0 0 0 0 0 0 0 0 127 0" result="hardAlpha"/>
<feOffset dy="2.39765"/>
<feGaussianBlur stdDeviation="1.19882"/>
<feComposite in2="hardAlpha" operator="out"/>
<feColorMatrix type="matrix" values="0 0 0 0 0 0 0 0 0 0 0 0 0 0 0 0 0 0 0.25 0"/>
<feBlend mode="normal" in2="BackgroundImageFix" result="effect1_dropShadow_986_985"/>
<feBlend mode="normal" in="SourceGraphic" in2="effect1_dropShadow_986_985" result="shape"/>
</filter>
<filter id="filter3_d_986_985" x="94.6024" y="47" width="34.7953" height="145.795" filterUnits="userSpaceOnUse" color-interpolation-filters="sRGB">
<feFlood flood-opacity="0" result="BackgroundImageFix"/>
<feColorMatrix in="SourceAlpha" type="matrix" values="0 0 0 0 0 0 0 0 0 0 0 0 0 0 0 0 0 0 127 0" result="hardAlpha"/>
<feOffset dy="2.39765"/>
<feGaussianBlur stdDeviation="1.19882"/>
<feComposite in2="hardAlpha" operator="out"/>
<feColorMatrix type="matrix" values="0 0 0 0 0 0 0 0 0 0 0 0 0 0 0 0 0 0 0.25 0"/>
<feBlend mode="normal" in2="BackgroundImageFix" result="effect1_dropShadow_986_985"/>
<feBlend mode="normal" in="SourceGraphic" in2="effect1_dropShadow_986_985" result="shape"/>
</filter>
<filter id="filter4_d_986_985" x="148.602" y="72" width="34.7953" height="120.795" filterUnits="userSpaceOnUse" color-interpolation-filters="sRGB">
<feFlood flood-opacity="0" result="BackgroundImageFix"/>
<feColorMatrix in="SourceAlpha" type="matrix" values="0 0 0 0 0 0 0 0 0 0 0 0 0 0 0 0 0 0 127 0" result="hardAlpha"/>
<feOffset dy="2.39765"/>
<feGaussianBlur stdDeviation="1.19882"/>
<feComposite in2="hardAlpha" operator="out"/>
<feColorMatrix type="matrix" values="0 0 0 0 0 0 0 0 0 0 0 0 0 0 0 0 0 0 0.25 0"/>
<feBlend mode="normal" in2="BackgroundImageFix" result="effect1_dropShadow_986_985"/>
<feBlend mode="normal" in="SourceGraphic" in2="effect1_dropShadow_986_985" result="shape"/>
</filter>
</defs>
</svg>
